<svg xmlns="http://www.w3.org/2000/svg" viewBox="0 0 800 1000" preserveAspectRatio="xMidYMid slice">
  <defs>
    <linearGradient id="l-sky" x1="0" y1="0" x2="0" y2="1"><stop offset="0%" stop-color="#FFE08A"/><stop offset="60%" stop-color="#FFB04D"/><stop offset="100%" stop-color="#FF7A4D"/></linearGradient>
    <filter id="g2"><feTurbulence type="fractalNoise" baseFrequency="0.9" numOctaves="2"/><feColorMatrix type="saturate" values="0"/><feComponentTransfer><feFuncA type="linear" slope="0.06"/></feComponentTransfer><feComposite operator="over" in2="SourceGraphic"/></filter>
  </defs>
  <rect width="800" height="1000" fill="url(#l-sky)"/>
  <circle cx="640" cy="200" r="90" fill="#FFF2C2"/>
  <rect y="640" width="800" height="360" fill="#FDE0B0"/>
  <ellipse cx="400" cy="660" rx="700" ry="60" fill="#F6CE8C"/>
  <!-- umbrella -->
  <rect x="392" y="430" width="16" height="240" rx="6" fill="#8A5A2B"/>
  <path d="M400,300 C300,300 230,400 220,440 L580,440 C570,400 500,300 400,300 Z" fill="#FF4D6D"/>
  <path d="M400,300 C360,300 320,400 320,440 L480,440 C480,400 440,300 400,300 Z" fill="#FFD24A"/>
  <!-- loungers -->
  <g fill="#0EA5E9">
    <rect x="120" y="600" width="180" height="26" rx="10" transform="rotate(-6 210 613)"/>
    <rect x="500" y="610" width="180" height="26" rx="10" transform="rotate(5 590 623)"/>
  </g>
  <g filter="url(#g2)"><rect width="800" height="1000" fill="transparent"/></g>
</svg>
